<svg
   xmlns:dc="http://purl.org/dc/elements/1.1/"
   xmlns:cc="http://creativecommons.org/ns#"
   xmlns:rdf="http://www.w3.org/1999/02/22-rdf-syntax-ns#"
   xmlns:svg="http://www.w3.org/2000/svg"
   xmlns="http://www.w3.org/2000/svg"
   xmlns:sodipodi="http://sodipodi.sourceforge.net/DTD/sodipodi-0.dtd"
   xmlns:inkscape="http://www.inkscape.org/namespaces/inkscape"
   class="{{ with .class }}{{ . }} {{ end }}icon icon-linkedin"
   width="24"
   height="24"
   viewBox="0 0 352 352"
   version="1.1"
   id="svg4"
   sodipodi:docname="scholar.svg"
   inkscape:version="0.92.5 (2060ec1f9f, 2020-04-08)">
  <metadata
     id="metadata10">
    <rdf:RDF>
      <cc:Work
         rdf:about="">
        <dc:format>image/svg+xml</dc:format>
        <dc:type
           rdf:resource="http://purl.org/dc/dcmitype/StillImage" />
      </cc:Work>
    </rdf:RDF>
  </metadata>
  <defs
     id="defs8" />
  <sodipodi:namedview
     pagecolor="#ffffff"
     bordercolor="#666666"
     borderopacity="1"
     objecttolerance="10"
     gridtolerance="10"
     guidetolerance="10"
     inkscape:pageopacity="0"
     inkscape:pageshadow="2"
     inkscape:window-width="1920"
     inkscape:window-height="1043"
     id="namedview6"
     showgrid="false"
     inkscape:zoom="9.8333333"
     inkscape:cx="4.8305087"
     inkscape:cy="11.644068"
     inkscape:window-x="0"
     inkscape:window-y="0"
     inkscape:window-maximized="1"
     inkscape:current-layer="svg4" />
  <path
     d="m 227.50471,155.43138 c -1.31891,0 -4.73589,3.43302 -4.19635,4.10918 a 122.47347,106.26656 0 0 0 11.98956,9.31068 21.701126,18.829417 0 0 0 4.43614,-4.31724 c 0.65945,-1.56042 -10.9105,-9.10262 -12.22935,-9.10262 z m 4.43613,-14.35612 c -1.25894,0 -4.67592,3.43299 -4.19633,4.1092 1.61859,2.02859 17.08514,13.21175 17.08514,13.21175 a 23.139875,20.077778 0 0 0 4.43614,-4.3172 c 0.77937,-1.61246 -15.7663,-13.00375 -17.32495,-13.00375 z m 10.79061,-12.06745 c -1.31889,0 -4.73587,3.43294 -4.19634,4.10916 a 124.51172,108.03506 0 0 0 11.98957,9.36268 22.4205,19.453597 0 0 0 4.43615,-4.36925 c 0.59947,-1.56046 -10.9105,-9.10259 -12.22938,-9.10259 z m 1.31891,-15.60448 c -1.31891,0 -4.73589,3.43295 -4.19636,4.10916 1.55866,2.02858 14.68723,12.06748 14.68723,12.06748 a 21.701126,18.829417 0 0 0 4.43615,-4.31725 c 0.77938,-1.71651 -13.48827,-11.96345 -14.92702,-11.96345 z m -1.85838,-9.57079 a 122.47347,106.26656 0 0 0 11.98956,9.3107 23.019979,19.973746 0 0 0 4.49609,-4.31727 c 0.77938,-1.61246 -10.79062,-9.102588 -11.98956,-9.102588 -1.19897,0 -5.03562,3.589008 -4.49609,4.109158 z M 54.075534,87.811942 c -1.079064,0 -4.19635,4.10917 -4.19635,4.10917 0,1.56046 11.270198,8.426428 11.270198,8.426428 0,0 4.436142,-3.641038 5.215463,-4.577288 0.779321,-0.9363 -11.270198,-7.95831 -12.289311,-7.95831 z m 16.00608,-8.89456 c 0,0 -6.414422,2.34068 -5.515204,3.64104 a 101.91138,88.425439 0 0 0 16.485666,12.74367 c 1.3189,0.26002 3.956554,-3.84911 4.496091,-4.52531 A 151.0686,131.07768 0 0 0 70.081614,78.917382 Z M 82.071179,66.849907 c -1.558641,0 -7.013895,4.733355 -5.99478,5.201495 a 135.66201,117.70988 0 0 0 17.984359,10.403 c 2.09818,0.26002 3.177232,-2.02859 3.417027,-3.64106 A 54.552552,47.333617 0 0 0 82.370921,66.849907 Z m 51.195481,-31.88517 c 0,-1.56045 -20.20245,-1.56045 -22.0608,-1.352386 a 149.39007,129.62127 0 0 0 -19.423116,19.349563 13.248479,11.495309 0 0 0 8.392696,1.14437 c 1.43874,-0.468127 12.4092,-12.691642 13.42833,-13.887992 1.01907,-1.196339 14.44744,0.676239 16.00606,0 a 9.3518664,8.1143342 0 0 0 3.95657,-5.253509 z m 17.02517,199.269343 c -33.03125,7.95823 -47.95826,20.02572 -46.39962,35.52619 1.55864,15.50047 7.85315,32.30128 40.64463,34.798 a 220.36834,191.207 0 0 0 88.96265,-10.92315 c 19.6629,-6.60588 17.98435,-16.38468 16.78541,-29.59651 -1.19898,-13.21177 -7.61338,-33.70568 -24.6386,-35.73428 -17.02517,-2.02857 -59.70806,2.23665 -75.05471,5.92975 z m 75.35447,7.49012 c 10.49089,0.9363 15.22678,17.52902 13.90793,27.77602 -1.3189,10.24693 -4.73589,14.5642 -23.07993,18.20523 -18.34404,3.64105 -57.49001,10.40298 -74.03562,5.92967 a 21.701126,18.829417 0 0 1 -10.73067,-28.9203 43.102512,37.398758 0 0 1 20.98174,-15.60448 c 16.36577,-6.13776 62.82538,-8.27039 73.25632,-7.38614 z M 158.74449,56.394897 c -46.69937,11.027186 -30.45349,76.045853 -10.49085,95.603493 19.96262,19.55765 50.89571,21.22211 65.94265,3.22497 15.04689,-17.99722 9.71154,-58.100748 -3.65683,-83.223968 C 197.17109,46.876171 170.91392,53.534083 158.74449,56.394897 Z m 44.78106,92.690663 c -10.49086,10.92312 -28.35534,12.95171 -45.14074,-5.20149 -16.78542,-18.15324 -30.3336,-64.498558 12.46916,-71.988708 17.98435,-3.172915 34.11033,8.84254 37.76716,24.55105 3.65682,15.708528 5.5152,41.663988 -5.09558,52.639148 z M 328.8166,84.170882 A 29.434399,25.539344 0 0 0 316.82702,67.786173 l -3.23719,-26.891734 a 15.4066,13.367844 0 0 0 5.99478,-5.929702 57.070364,49.518246 0 0 0 0.29969,-14.356127 c -0.53954,-4.05717 -8.39271,-4.05717 -31.47264,-4.5253 -23.07991,-0.46813 -171.63073,-0.67624 -178.46479,-0.67624 -6.83405,0 -15.766281,9.570748 -28.355336,22.31442 -12.58905,12.743656 -57.909633,56.488252 -66.662019,67.41139 -8.7523921,10.92315 3.177236,17.73712 16.305817,17.26894 h 38.846282 a 95.916584,83.22394 0 0 0 5.994785,14.87629 c 5.99478,12.48359 19.243269,38.59509 40.225021,51.65088 20.98172,13.05573 68.58034,11.23522 68.58034,11.23522 0,0 -59.16855,17.58107 -90.281477,30.01263 a 53.533439,46.44936 0 0 0 -27.276272,61.63774 c 10.850563,19.76565 45.140719,51.33875 133.983479,45.56508 88.84273,-5.77364 92.37966,-48.58196 87.82363,-83.22394 -4.55605,-34.64193 -48.61771,-59.45308 -48.61771,-59.45308 v -5.04545 a 97.055585,84.212221 0 0 0 32.55167,-38.54311 c 10.49088,-25.48729 -1.07905,-74.069288 -1.07905,-74.069288 l 23.97914,-22.782553 0.35965,22.158373 a 22.000865,19.089493 0 0 0 -5.9948,4.57731 c -1.55865,2.23665 -2.09817,5.87771 -0.47956,33.705728 1.61859,27.828 -5.27542,62.41794 10.49087,70.58428 15.76629,8.16635 33.03127,-2.7568 34.11032,-10.97513 1.07906,-8.21841 -4.07645,-79.686948 -5.63508,-90.141958 z m -71.93744,-11.07919 c 0,2.13264 12.58904,32.197278 6.29452,57.216488 a 97.235432,84.368272 0 0 1 -29.97391,46.81345 c -10.13121,7.90627 -10.13121,9.72682 -10.13121,10.40298 a 69.719362,60.493404 0 0 0 5.99478,15.60448 c 1.73851,0.57218 34.76977,13.15982 41.60382,40.31162 a 90.341426,78.386549 0 0 0 -9.6516,-6.03373 c -1.55864,-0.41609 -4.19634,5.20147 -4.19634,5.20147 l 15.46655,10.8191 c 0,1.66452 0,3.32896 0.29966,4.94142 a 118.33707,102.67756 0 0 0 -13.12857,-8.47842 c -1.61858,-0.46812 -4.19635,5.20152 -4.19635,5.20152 l 17.02521,11.91143 a 63.964367,55.499965 0 0 1 -1.37882,7.43813 64.803636,56.228174 0 0 0 -10.67072,-7.54218 c -1.55864,-0.41611 -4.19635,5.20152 -4.19635,5.20152 l 12.34926,9.41468 a 56.231093,48.790036 0 0 1 -3.17723,5.4616 65.942646,57.216459 0 0 0 -9.17203,-6.24181 c -1.55863,-0.41611 -4.19634,5.20147 -4.19634,5.20147 l 8.81233,6.70998 a 49.576881,43.016376 0 0 1 -3.17725,3.64104 121.81405,105.69439 0 0 0 -10.01127,-6.34586 c -1.3189,-0.67625 -5.21547,2.96484 -5.21547,3.64107 a 80.98956,70.272215 0 0 0 8.51259,7.90624 66.482177,57.684593 0 0 1 -5.99478,3.7451 16.185923,14.044042 0 0 0 -6.83408,-6.13776 10.550825,9.1546337 0 0 0 -5.2754,2.49671 c -0.53953,0.78017 3.23719,4.42125 5.57516,6.6059 -23.01997,9.31067 -58.8688,12.4836 -90.58124,9.57076 -34.88965,-3.22493 -58.509108,-10.71511 -68.760186,-32.35331 -10.251083,-21.63825 1.558641,-39.16728 29.674206,-50.76659 28.11554,-11.59935 98.19461,-30.74084 98.73413,-31.98923 a 90.461321,78.490579 0 0 0 -4.19635,-17.11289 c -0.77939,0 -39.08603,4.78536 -73.49611,-12.27557 A 95.916584,83.22394 0 0 1 82.131128,122.03779 c -4.196345,-11.85941 -5.275407,-15.60449 -6.29452,-15.91656 -1.019114,-0.31209 -46.639435,-1.7685 -47.059071,-2.80884 -0.41964,-1.04032 77.932213,-78.334527 79.790603,-78.958704 1.85838,-0.624212 196.629,0.624213 196.26931,2.444705 -0.35965,1.820517 -47.95829,44.160691 -47.95829,46.293301 z m 66.54211,84.160228 c -1.79842,17.52904 -14.44743,18.67338 -19.6629,8.63449 -5.21545,-10.0389 -4.31624,-77.658348 -4.31624,-77.658348 a 35.968718,31.208976 0 0 0 6.53434,-7.69821 c 0,-1.14437 -2.87751,-32.821444 -2.63771,-33.705699 a 19.06342,16.540759 0 0 1 3.17722,-3.432989 l 3.41703,32.353308 c 0,0 7.6134,2.70478 7.85318,4.31724 0.23985,1.61246 7.61338,59.661158 5.63508,77.190208 z m -15.22675,-3.433 c 1.85839,1.61246 8.93224,6.39785 10.79063,6.18976 1.85838,-0.20809 0.77937,-2.08058 1.55862,-4.10917 0.77938,-2.02859 -8.39268,-7.2821 -9.71154,-7.2821 -1.3189,0 -2.51781,5.20151 -2.51781,5.20151 z m 0.53953,4.10918 c -1.31889,0 -2.63772,4.57735 -2.63772,4.57735 1.85838,1.5604 8.93223,6.34579 10.79062,6.13775 1.85839,-0.20814 0.77936,-1.35243 1.55865,-3.43301 0.77938,-2.08058 -8.27281,-7.28209 -9.59166,-7.28209 z"
     id="path2"
     inkscape:connector-curvature="0"
     style="fill:#ffffff;stroke-width:5.58407164" />
</svg>
